<svg xmlns="http://www.w3.org/2000/svg" width="140" height="50" viewBox="0 0 140 50" shape-rendering="crispEdges"><style>@media (prefers-reduced-motion: reduce){*{animation:none!important}}</style><rect x="6" y="6" width="134" height="44" fill="#000"/><rect width="134" height="44" fill="#2f6bff"/><rect x="130" y="0" width="4" height="44" fill="#000" opacity=".3"/><rect x="0" y="40" width="134" height="4" fill="#000" opacity=".3"/><rect width="134" height="4" fill="#fff" opacity=".25"/><rect width="4" height="44" fill="#fff" opacity=".25"/><path d="M20 15.0h2v2h-2zM20 17.0h2v2h-2zM20 19.0h2v2h-2zM20 21.0h2v2h-2zM20 23.0h2v2h-2zM20 25.0h2v2h-2zM20 27.0h10v2h-10zM32 15.0h10v2h-10zM36 17.0h2v2h-2zM36 19.0h2v2h-2zM36 21.0h2v2h-2zM36 23.0h2v2h-2zM36 25.0h2v2h-2zM32 27.0h10v2h-10zM44 15.0h2v2h-2zM52 15.0h2v2h-2zM44 17.0h4v2h-4zM52 17.0h2v2h-2zM44 19.0h2v2h-2zM48 19.0h2v2h-2zM52 19.0h2v2h-2zM44 21.0h2v2h-2zM50 21.0h4v2h-4zM44 23.0h2v2h-2zM52 23.0h2v2h-2zM44 25.0h2v2h-2zM52 25.0h2v2h-2zM44 27.0h2v2h-2zM52 27.0h2v2h-2zM56 15.0h2v2h-2zM64 15.0h2v2h-2zM56 17.0h2v2h-2zM62 17.0h2v2h-2zM56 19.0h2v2h-2zM60 19.0h2v2h-2zM56 21.0h4v2h-4zM56 23.0h2v2h-2zM60 23.0h2v2h-2zM56 25.0h2v2h-2zM62 25.0h2v2h-2zM56 27.0h2v2h-2zM64 27.0h2v2h-2zM68 15.0h10v2h-10zM68 17.0h2v2h-2zM68 19.0h2v2h-2zM68 21.0h8v2h-8zM68 23.0h2v2h-2zM68 25.0h2v2h-2zM68 27.0h10v2h-10zM80 15.0h8v2h-8zM80 17.0h2v2h-2zM88 17.0h2v2h-2zM80 19.0h2v2h-2zM88 19.0h2v2h-2zM80 21.0h2v2h-2zM88 21.0h2v2h-2zM80 23.0h2v2h-2zM88 23.0h2v2h-2zM80 25.0h2v2h-2zM88 25.0h2v2h-2zM80 27.0h8v2h-8zM92 15.0h10v2h-10zM96 17.0h2v2h-2zM96 19.0h2v2h-2zM96 21.0h2v2h-2zM96 23.0h2v2h-2zM96 25.0h2v2h-2zM92 27.0h10v2h-10zM104 15.0h2v2h-2zM112 15.0h2v2h-2zM104 17.0h4v2h-4zM112 17.0h2v2h-2zM104 19.0h2v2h-2zM108 19.0h2v2h-2zM112 19.0h2v2h-2zM104 21.0h2v2h-2zM110 21.0h4v2h-4zM104 23.0h2v2h-2zM112 23.0h2v2h-2zM104 25.0h2v2h-2zM112 25.0h2v2h-2zM104 27.0h2v2h-2zM112 27.0h2v2h-2z" fill="#ffffff"/></svg>